<svg width="50" height="50" viewBox="0 0 50 50" fill="none" xmlns="http://www.w3.org/2000/svg">
<rect x="1" y="1" width="22" height="22" rx="11" stroke="white" stroke-width="2"/>
<path d="M15.6218 14.124C15.9845 14.124 16.1658 14.332 16.1658 14.748V16.748C16.1658 16.9613 16.0911 17.1427 15.9418 17.292C15.7925 17.4307 15.6111 17.5 15.3978 17.5H8.29381C7.87781 17.5 7.66981 17.3187 7.66981 16.956V16.412C7.66981 16.0493 7.87781 15.868 8.29381 15.868H8.64581V7.932H8.29381C7.87781 7.932 7.66981 7.75067 7.66981 7.388V6.844C7.66981 6.48133 7.87781 6.3 8.29381 6.3H15.3018C15.5258 6.3 15.7071 6.37467 15.8458 6.524C15.9951 6.67333 16.0698 6.85467 16.0698 7.068V8.764C16.0698 9.18 15.8885 9.388 15.5258 9.388H14.9978C14.6351 9.388 14.4538 9.18 14.4538 8.764V7.932H10.5658V10.892H13.5738C13.7445 10.892 13.8885 10.9507 14.0058 11.068C14.1231 11.1747 14.1818 11.3133 14.1818 11.484V11.916C14.1818 12.0867 14.1231 12.2307 14.0058 12.348C13.8885 12.4653 13.7445 12.524 13.5738 12.524H10.5658V15.868H14.5338V14.748C14.5338 14.332 14.7151 14.124 15.0778 14.124H15.6218Z" fill="white"/>
<rect x="27" y="1" width="22" height="22" rx="11" stroke="white" stroke-width="2"/>
<path d="M38.2038 6.3C39.5798 6.3 40.6198 6.58267 41.3238 7.148C42.0278 7.70267 42.3798 8.524 42.3798 9.612C42.3798 10.3373 42.1984 10.972 41.8358 11.516C41.4838 12.0493 40.9771 12.46 40.3158 12.748C39.6544 13.036 38.8758 13.18 37.9798 13.18H36.6518V15.868H36.9878C37.4038 15.868 37.6118 16.0493 37.6118 16.412V16.956C37.6118 17.3187 37.4038 17.5 36.9878 17.5H34.3798C33.9638 17.5 33.7558 17.3187 33.7558 16.956V16.412C33.7558 16.0493 33.9638 15.868 34.3798 15.868H34.7318V7.932H34.3798C33.9638 7.932 33.7558 7.75067 33.7558 7.388V6.844C33.7558 6.48133 33.9638 6.3 34.3798 6.3H38.2038ZM37.8838 11.548C38.7691 11.548 39.4091 11.3987 39.8038 11.1C40.2091 10.7907 40.4118 10.3053 40.4118 9.644C40.4118 9.05733 40.2304 8.62533 39.8678 8.348C39.5051 8.07067 38.9291 7.932 38.1398 7.932H36.6518V11.548H37.8838Z" fill="white"/>
<rect x="1" y="27" width="22" height="22" rx="11" stroke="white" stroke-width="2"/>
<path d="M10.6844 43.5C10.2684 43.5 10.0604 43.3187 10.0604 42.956V42.412C10.0604 42.0493 10.2684 41.868 10.6844 41.868H11.0364V33.932H10.6844C10.2684 33.932 10.0604 33.7507 10.0604 33.388V32.844C10.0604 32.4813 10.2684 32.3 10.6844 32.3H13.2924C13.7084 32.3 13.9164 32.4813 13.9164 32.844V33.388C13.9164 33.7507 13.7084 33.932 13.2924 33.932H12.9564V41.868H13.2924C13.7084 41.868 13.9164 42.0493 13.9164 42.412V42.956C13.9164 43.3187 13.7084 43.5 13.2924 43.5H10.6844Z" fill="white"/>
<rect x="27" y="27" width="22" height="22" rx="11" stroke="white" stroke-width="2"/>
<path d="M42.5827 41.868C42.9987 41.868 43.2067 42.0493 43.2067 42.412V42.956C43.2067 43.3187 42.9987 43.5 42.5827 43.5H39.3667C38.9507 43.5 38.7427 43.3187 38.7427 42.956V42.412C38.7427 42.0493 38.9507 41.868 39.3667 41.868H39.4947L35.8627 38.124V41.868H36.1987C36.6147 41.868 36.8227 42.0493 36.8227 42.412V42.956C36.8227 43.3187 36.6147 43.5 36.1987 43.5H33.5907C33.1747 43.5 32.9667 43.3187 32.9667 42.956V42.412C32.9667 42.0493 33.1747 41.868 33.5907 41.868H33.9427V33.932H33.5907C33.1747 33.932 32.9667 33.7507 32.9667 33.388V32.844C32.9667 32.4813 33.1747 32.3 33.5907 32.3H36.1987C36.6147 32.3 36.8227 32.4813 36.8227 32.844V33.388C36.8227 33.7507 36.6147 33.932 36.1987 33.932H35.8627V37.484L39.5907 33.932H39.3507C38.9347 33.932 38.7267 33.7507 38.7267 33.388V32.844C38.7267 32.6413 38.7587 32.5027 38.8227 32.428C38.8867 32.3427 39.0094 32.3 39.1907 32.3H42.3747C42.7907 32.3 42.9987 32.4813 42.9987 32.844V33.388C42.9987 33.7507 42.7907 33.932 42.3747 33.932H41.8627L37.8307 37.628L42.0067 41.868H42.5827Z" fill="white"/>
</svg>
