<svg width="24" height="24" viewBox="0 0 24 24" fill="none" xmlns="http://www.w3.org/2000/svg">
<rect x="1" y="1" width="22" height="22" rx="11" stroke="white" stroke-width="2"/>
<path d="M15.6218 14.124C15.9845 14.124 16.1658 14.332 16.1658 14.748V16.748C16.1658 16.9613 16.0911 17.1427 15.9418 17.292C15.7925 17.4307 15.6111 17.5 15.3978 17.5H8.29381C7.87781 17.5 7.66981 17.3187 7.66981 16.956V16.412C7.66981 16.0493 7.87781 15.868 8.29381 15.868H8.64581V7.932H8.29381C7.87781 7.932 7.66981 7.75067 7.66981 7.388V6.844C7.66981 6.48133 7.87781 6.3 8.29381 6.3H15.3018C15.5258 6.3 15.7071 6.37467 15.8458 6.524C15.9951 6.67333 16.0698 6.85467 16.0698 7.068V8.764C16.0698 9.18 15.8885 9.388 15.5258 9.388H14.9978C14.6351 9.388 14.4538 9.18 14.4538 8.764V7.932H10.5658V10.892H13.5738C13.7445 10.892 13.8885 10.9507 14.0058 11.068C14.1231 11.1747 14.1818 11.3133 14.1818 11.484V11.916C14.1818 12.0867 14.1231 12.2307 14.0058 12.348C13.8885 12.4653 13.7445 12.524 13.5738 12.524H10.5658V15.868H14.5338V14.748C14.5338 14.332 14.7151 14.124 15.0778 14.124H15.6218Z" fill="white"/>
</svg>
