<svg width="24" height="24" viewBox="0 0 24 24" fill="none" xmlns="http://www.w3.org/2000/svg">
<rect x="1" y="1" width="22" height="22" rx="11" stroke="white" stroke-width="2"/>
<path d="M12.2038 6.3C13.5798 6.3 14.6198 6.58267 15.3238 7.148C16.0278 7.70267 16.3798 8.524 16.3798 9.612C16.3798 10.3373 16.1984 10.972 15.8358 11.516C15.4838 12.0493 14.9771 12.46 14.3158 12.748C13.6544 13.036 12.8758 13.18 11.9798 13.18H10.6518V15.868H10.9878C11.4038 15.868 11.6118 16.0493 11.6118 16.412V16.956C11.6118 17.3187 11.4038 17.5 10.9878 17.5H8.37975C7.96375 17.5 7.75575 17.3187 7.75575 16.956V16.412C7.75575 16.0493 7.96375 15.868 8.37975 15.868H8.73175V7.932H8.37975C7.96375 7.932 7.75575 7.75067 7.75575 7.388V6.844C7.75575 6.48133 7.96375 6.3 8.37975 6.3H12.2038ZM11.8838 11.548C12.7691 11.548 13.4091 11.3987 13.8038 11.1C14.2091 10.7907 14.4118 10.3053 14.4118 9.644C14.4118 9.05733 14.2304 8.62533 13.8678 8.348C13.5051 8.07067 12.9291 7.932 12.1398 7.932H10.6518V11.548H11.8838Z" fill="white"/>
</svg>
