<svg width="24" height="24" viewBox="0 0 24 24" fill="none" xmlns="http://www.w3.org/2000/svg">
<rect x="1" y="1" width="22" height="22" rx="11" stroke="white" stroke-width="2"/>
<path d="M16.5827 15.868C16.9987 15.868 17.2067 16.0493 17.2067 16.412V16.956C17.2067 17.3187 16.9987 17.5 16.5827 17.5H13.3667C12.9507 17.5 12.7427 17.3187 12.7427 16.956V16.412C12.7427 16.0493 12.9507 15.868 13.3667 15.868H13.4947L9.86269 12.124V15.868H10.1987C10.6147 15.868 10.8227 16.0493 10.8227 16.412V16.956C10.8227 17.3187 10.6147 17.5 10.1987 17.5H7.59069C7.17469 17.5 6.96669 17.3187 6.96669 16.956V16.412C6.96669 16.0493 7.17469 15.868 7.59069 15.868H7.94269V7.932H7.59069C7.17469 7.932 6.96669 7.75067 6.96669 7.388V6.844C6.96669 6.48133 7.17469 6.3 7.59069 6.3H10.1987C10.6147 6.3 10.8227 6.48133 10.8227 6.844V7.388C10.8227 7.75067 10.6147 7.932 10.1987 7.932H9.86269V11.484L13.5907 7.932H13.3507C12.9347 7.932 12.7267 7.75067 12.7267 7.388V6.844C12.7267 6.64133 12.7587 6.50267 12.8227 6.428C12.8867 6.34267 13.0094 6.3 13.1907 6.3H16.3747C16.7907 6.3 16.9987 6.48133 16.9987 6.844V7.388C16.9987 7.75067 16.7907 7.932 16.3747 7.932H15.8627L11.8307 11.628L16.0067 15.868H16.5827Z" fill="white"/>
</svg>
