<svg width="24" height="24" viewBox="0 0 24 24" fill="none" xmlns="http://www.w3.org/2000/svg">
<rect x="1" y="1" width="22" height="22" rx="11" stroke="white" stroke-width="2"/>
<path d="M10.6844 17.5C10.2684 17.5 10.0604 17.3187 10.0604 16.956V16.412C10.0604 16.0493 10.2684 15.868 10.6844 15.868H11.0364V7.932H10.6844C10.2684 7.932 10.0604 7.75067 10.0604 7.388V6.844C10.0604 6.48133 10.2684 6.3 10.6844 6.3H13.2924C13.7084 6.3 13.9164 6.48133 13.9164 6.844V7.388C13.9164 7.75067 13.7084 7.932 13.2924 7.932H12.9564V15.868H13.2924C13.7084 15.868 13.9164 16.0493 13.9164 16.412V16.956C13.9164 17.3187 13.7084 17.5 13.2924 17.5H10.6844Z" fill="white"/>
</svg>
