<svg width="24" height="24" viewBox="0 0 24 24" fill="none" xmlns="http://www.w3.org/2000/svg">
<rect width="24" height="24" rx="12" fill="#333333"/>
<g clip-path="url(#clip0_1128_626)">
<mask id="mask0_1128_626" style="mask-type:luminance" maskUnits="userSpaceOnUse" x="2" y="2" width="20" height="20">
<path d="M12 22C17.5228 22 22 17.5228 22 12C22 6.47715 17.5228 2 12 2C6.47715 2 2 6.47715 2 12C2 17.5228 6.47715 22 12 22Z" fill="white"/>
</mask>
<g mask="url(#mask0_1128_626)">
<path d="M2 2H22V22H2V2Z" fill="#333333"/>
<path d="M16.375 6.25782C15.9844 6.21876 15.6719 6.53126 15.6719 6.92188C15.6719 7.1172 15.75 7.35157 15.9062 7.46876L15.2422 8.13282L15.9062 8.75782L16.5312 8.09376C16.6875 8.25001 16.8828 8.32813 17.0781 8.32813C17.4688 8.32813 17.7812 8.01563 17.7422 7.62501C17.7812 7.23438 17.4688 6.92188 17.0781 6.92188C17.0781 6.53126 16.7656 6.21876 16.375 6.25782ZM15.75 15.0859L15.0859 15.7109L15.9062 16.5313C15.75 16.6875 15.6719 16.8828 15.6719 17.0781C15.6719 17.4688 15.9844 17.7813 16.375 17.7422C16.7656 17.7813 17.0781 17.4688 17.0781 17.0781C17.4688 17.0781 17.7812 16.7656 17.7422 16.375C17.7812 15.9844 17.4688 15.6719 17.0781 15.6719C16.8828 15.6719 16.6875 15.75 16.5312 15.9063L15.75 15.0859ZM12 7.85938C9.69531 7.85938 7.85938 9.73438 7.85938 12V13.6016C7.85938 13.6016 8.40625 13.9141 9.26562 14.7344C10.0859 15.5938 10.3984 16.1406 10.3984 16.1406H13.6016C13.6016 16.1406 13.9141 15.5938 14.7344 14.7344C15.5938 13.9141 16.1406 13.6016 16.1406 13.6016V12C16.1406 9.73438 14.3047 7.85938 12 7.85938Z" fill="#EEEEEE"/>
<path d="M10.0469 13.8359C10.8084 13.8359 11.4258 13.2186 11.4258 12.457C11.4258 11.6955 10.8084 11.0781 10.0469 11.0781C9.28533 11.0781 8.66797 11.6955 8.66797 12.457C8.66797 13.2186 9.28533 13.8359 10.0469 13.8359Z" fill="#333333"/>
<path d="M13.9531 13.8359C14.7147 13.8359 15.332 13.2186 15.332 12.457C15.332 11.6955 14.7147 11.0781 13.9531 11.0781C13.1916 11.0781 12.5742 11.6955 12.5742 12.457C12.5742 13.2186 13.1916 13.8359 13.9531 13.8359Z" fill="#333333"/>
<path d="M7.62489 6.25782C8.01551 6.21876 8.32801 6.53126 8.32801 6.92188C8.32801 7.1172 8.24989 7.35157 8.09364 7.46876L8.7577 8.13282L8.09364 8.75782L7.46864 8.09376C7.31239 8.25001 7.11707 8.32813 6.92176 8.32813C6.53114 8.32813 6.21864 8.01563 6.2577 7.62501C6.21864 7.23438 6.53114 6.92188 6.92176 6.92188C6.92176 6.53126 7.23426 6.21876 7.62489 6.25782ZM8.24989 15.0859L8.91395 15.7109L8.09364 16.5313C8.24989 16.6875 8.32801 16.8828 8.32801 17.0781C8.32801 17.4688 8.01551 17.7813 7.62489 17.7422C7.23426 17.7813 6.92176 17.4688 6.92176 17.0781C6.53114 17.0781 6.21864 16.7656 6.2577 16.375C6.21864 15.9844 6.53114 15.6719 6.92176 15.6719C7.11707 15.6719 7.31239 15.75 7.46864 15.9063L8.24989 15.0859Z" fill="#EEEEEE"/>
<path d="M11.9999 13.4453C11.9446 13.4448 11.8901 13.459 11.842 13.4865C11.794 13.5139 11.7541 13.5537 11.7264 13.6016L11.2186 14.3828C11.1911 14.4305 11.1766 14.4847 11.1768 14.5398C11.1769 14.5949 11.1916 14.649 11.2193 14.6965C11.2471 14.7441 11.2869 14.7835 11.3348 14.8108C11.3827 14.838 11.437 14.8521 11.4921 14.8516H12.5077C12.5628 14.8521 12.617 14.838 12.6649 14.8108C12.7128 14.7835 12.7527 14.7441 12.7804 14.6965C12.8082 14.649 12.8229 14.5949 12.823 14.5398C12.8231 14.4847 12.8087 14.4305 12.7811 14.3828L12.2733 13.6016C12.2457 13.5537 12.2058 13.5139 12.1577 13.4865C12.1097 13.459 12.0552 13.4448 11.9999 13.4453Z" fill="#333333"/>
</g>
</g>
<defs>
<clipPath id="clip0_1128_626">
<rect width="20" height="20" fill="white" transform="translate(2 2)"/>
</clipPath>
</defs>
</svg>
