<svg width="24" height="24" viewBox="0 0 24 24" fill="none" xmlns="http://www.w3.org/2000/svg">
<rect width="24" height="24" rx="12" fill="#FF00C4"/>
<path d="M12 8.16129L10.9285 8.24258C10.2356 7.32129 8.29406 5 6.36052 5C6.36052 5 4.77341 7.67355 6.3283 11.2413C5.8852 11.991 5.61128 12.3794 5.55488 13.2735L4 13.5355L4.16918 14.4206L5.58711 14.1858L5.6999 14.8271L4.43505 15.6761L4.8137 16.48L5.98187 15.6761C6.90836 17.88 9.25277 19 12 19C14.7472 19 17.0916 17.88 18.0181 15.6761L19.1863 16.48L19.565 15.6761L18.3001 14.8271L18.4129 14.1858L19.8308 14.4206L20 13.5355L18.4451 13.2735C18.3887 12.3794 18.1148 11.991 17.6717 11.2413C19.2266 7.67355 17.6395 5 17.6395 5C15.7059 5 13.7643 7.32129 13.0715 8.24258L12 8.16129ZM9.58308 10.871C9.79675 10.871 10.0017 10.9661 10.1528 11.1355C10.3038 11.3049 10.3887 11.5346 10.3887 11.7742C10.3887 12.0137 10.3038 12.2435 10.1528 12.4129C10.0017 12.5823 9.79675 12.6774 9.58308 12.6774C9.36941 12.6774 9.1645 12.5823 9.01341 12.4129C8.86232 12.2435 8.77744 12.0137 8.77744 11.7742C8.77744 11.5346 8.86232 11.3049 9.01341 11.1355C9.1645 10.9661 9.36941 10.871 9.58308 10.871ZM14.4169 10.871C14.6306 10.871 14.8355 10.9661 14.9866 11.1355C15.1377 11.3049 15.2226 11.5346 15.2226 11.7742C15.2226 12.0137 15.1377 12.2435 14.9866 12.4129C14.8355 12.5823 14.6306 12.6774 14.4169 12.6774C14.2032 12.6774 13.9983 12.5823 13.8472 12.4129C13.6962 12.2435 13.6113 12.0137 13.6113 11.7742C13.6113 11.5346 13.6962 11.3049 13.8472 11.1355C13.9983 10.9661 14.2032 10.871 14.4169 10.871ZM11.1944 13.5806H12.8056L12.2417 14.8361C12.4028 15.4142 12.854 15.8387 13.4099 15.8387C13.7304 15.8387 14.0377 15.696 14.2644 15.4419C14.491 15.1878 14.6183 14.8432 14.6183 14.4839H15.0211C15.0211 14.963 14.8514 15.4224 14.5492 15.7612C14.247 16.1 13.8372 16.2903 13.4099 16.2903C12.8056 16.2903 12.282 15.92 12 15.3871C11.718 15.92 11.1944 16.2903 10.5901 16.2903C10.1628 16.2903 9.75296 16.1 9.45079 15.7612C9.14861 15.4224 8.97885 14.963 8.97885 14.4839H9.38167C9.38167 14.8432 9.50899 15.1878 9.73562 15.4419C9.96225 15.696 10.2696 15.8387 10.5901 15.8387C11.146 15.8387 11.5972 15.4142 11.7583 14.8361L11.1944 13.5806Z" fill="black"/>
</svg>
